<?xml version="1.0" encoding="UTF-8"?>
<svg id="Layer_2" data-name="Layer 2" xmlns="http://www.w3.org/2000/svg" viewBox="0 0 12.86 12.86">
  <defs>
    <style>
      .cls-1 {
        fill: #fff;
      }
    </style>
  </defs>
  <g id="Layer_1-2" data-name="Layer 1">
    <g>
      <path class="cls-1" d="M6.43,5.65c.43,0,.78.35.78.78s-.35.78-.78.78-.78-.35-.78-.78.35-.78.78-.78M6.43,4.62c-1,0-1.81.81-1.81,1.81s.81,1.81,1.81,1.81,1.81-.81,1.81-1.81-.81-1.81-1.81-1.81h0Z"/>
      <path class="cls-1" d="M6.43,2.89c1.95,0,3.54,1.59,3.54,3.54s-1.59,3.54-3.54,3.54-3.54-1.59-3.54-3.54,1.59-3.54,3.54-3.54M6.43,2.12c-2.38,0-4.31,1.93-4.31,4.31s1.93,4.31,4.31,4.31,4.31-1.93,4.31-4.31-1.93-4.31-4.31-4.31h0Z"/>
      <path class="cls-1" d="M6.43.51c3.26,0,5.91,2.65,5.91,5.91s-2.65,5.91-5.91,5.91S.51,9.69.51,6.43,3.17.51,6.43.51M6.43,0C2.88,0,0,2.88,0,6.43s2.88,6.43,6.43,6.43,6.43-2.88,6.43-6.43S9.98,0,6.43,0h0Z"/>
    </g>
  </g>
</svg>